<svg width="355" height="78" viewBox="0 0 355 78" fill="none" xmlns="http://www.w3.org/2000/svg">
<path d="M194.531 47.3182C192.834 47.3182 191.327 47.0114 190.009 46.3977C188.69 45.7841 187.649 44.9394 186.884 43.8636C186.126 42.7879 185.732 41.553 185.702 40.1591H191.156C191.202 41.0152 191.55 41.7045 192.202 42.2273C192.853 42.7424 193.63 43 194.531 43C195.236 43 195.861 42.8447 196.406 42.5341C196.952 42.2235 197.38 41.7879 197.69 41.2273C198.001 40.6591 198.152 40.0076 198.145 39.2727C198.152 38.5227 197.997 37.8674 197.679 37.3068C197.368 36.7462 196.937 36.3106 196.384 36C195.838 35.6818 195.209 35.5227 194.497 35.5227C193.823 35.5152 193.183 35.6629 192.577 35.9659C191.978 36.2689 191.524 36.6818 191.213 37.2045L186.247 36.2727L187.259 23.7273H202.19V28.2614H191.884L191.349 33.75H191.486C191.872 33.1061 192.493 32.5758 193.349 32.1591C194.213 31.7348 195.194 31.5227 196.293 31.5227C197.687 31.5227 198.929 31.8485 200.02 32.5C201.118 33.1439 201.982 34.0379 202.611 35.1818C203.247 36.3258 203.565 37.6364 203.565 39.1136C203.565 40.7121 203.187 42.1288 202.429 43.3636C201.679 44.5985 200.626 45.5682 199.27 46.2727C197.921 46.9697 196.342 47.3182 194.531 47.3182ZM211.682 43.8182L211.58 45.0795C211.489 46.125 211.303 47.1439 211.023 48.1364C210.75 49.1364 210.458 50.0341 210.148 50.8295C209.837 51.625 209.591 52.2424 209.409 52.6818H205.909C206.03 52.2424 206.193 51.625 206.398 50.8295C206.61 50.0341 206.807 49.1364 206.989 48.1364C207.17 47.1364 207.273 46.1212 207.295 45.0909L207.318 43.8182H211.682ZM224.528 47.5682C222.498 47.5682 220.748 47.0871 219.278 46.125C217.809 45.1553 216.676 43.7652 215.881 41.9545C215.085 40.1364 214.691 37.9508 214.699 35.3977C214.706 32.8447 215.104 30.678 215.892 28.8977C216.688 27.1098 217.816 25.75 219.278 24.8182C220.748 23.8788 222.498 23.4091 224.528 23.4091C226.559 23.4091 228.309 23.8788 229.778 24.8182C231.256 25.75 232.392 27.1098 233.188 28.8977C233.983 30.6856 234.377 32.8523 234.369 35.3977C234.369 37.9583 233.972 40.1477 233.176 41.9659C232.381 43.7841 231.248 45.1742 229.778 46.1364C228.316 47.0909 226.566 47.5682 224.528 47.5682ZM224.528 42.9659C225.741 42.9659 226.722 42.3485 227.472 41.1136C228.222 39.8712 228.593 37.9659 228.585 35.3977C228.585 33.7159 228.415 32.3295 228.074 31.2386C227.733 30.1402 227.259 29.322 226.653 28.7841C226.047 28.2462 225.339 27.9773 224.528 27.9773C223.324 27.9773 222.35 28.5871 221.608 29.8068C220.866 31.0189 220.491 32.8826 220.483 35.3977C220.475 37.1023 220.638 38.5152 220.972 39.6364C221.313 40.7576 221.79 41.5947 222.403 42.1477C223.017 42.6932 223.725 42.9659 224.528 42.9659ZM247.216 47.5682C245.186 47.5682 243.436 47.0871 241.966 46.125C240.496 45.1553 239.364 43.7652 238.568 41.9545C237.773 40.1364 237.379 37.9508 237.386 35.3977C237.394 32.8447 237.792 30.678 238.58 28.8977C239.375 27.1098 240.504 25.75 241.966 24.8182C243.436 23.8788 245.186 23.4091 247.216 23.4091C249.246 23.4091 250.996 23.8788 252.466 24.8182C253.943 25.75 255.08 27.1098 255.875 28.8977C256.67 30.6856 257.064 32.8523 257.057 35.3977C257.057 37.9583 256.659 40.1477 255.864 41.9659C255.068 43.7841 253.936 45.1742 252.466 46.1364C251.004 47.0909 249.254 47.5682 247.216 47.5682ZM247.216 42.9659C248.428 42.9659 249.409 42.3485 250.159 41.1136C250.909 39.8712 251.28 37.9659 251.273 35.3977C251.273 33.7159 251.102 32.3295 250.761 31.2386C250.42 30.1402 249.947 29.322 249.341 28.7841C248.735 28.2462 248.027 27.9773 247.216 27.9773C246.011 27.9773 245.038 28.5871 244.295 29.8068C243.553 31.0189 243.178 32.8826 243.17 35.3977C243.163 37.1023 243.326 38.5152 243.659 39.6364C244 40.7576 244.477 41.5947 245.091 42.1477C245.705 42.6932 246.413 42.9659 247.216 42.9659ZM269.903 47.5682C267.873 47.5682 266.123 47.0871 264.653 46.125C263.184 45.1553 262.051 43.7652 261.256 41.9545C260.46 40.1364 260.066 37.9508 260.074 35.3977C260.081 32.8447 260.479 30.678 261.267 28.8977C262.063 27.1098 263.191 25.75 264.653 24.8182C266.123 23.8788 267.873 23.4091 269.903 23.4091C271.934 23.4091 273.684 23.8788 275.153 24.8182C276.631 25.75 277.767 27.1098 278.562 28.8977C279.358 30.6856 279.752 32.8523 279.744 35.3977C279.744 37.9583 279.347 40.1477 278.551 41.9659C277.756 43.7841 276.623 45.1742 275.153 46.1364C273.691 47.0909 271.941 47.5682 269.903 47.5682ZM269.903 42.9659C271.116 42.9659 272.097 42.3485 272.847 41.1136C273.597 39.8712 273.968 37.9659 273.96 35.3977C273.96 33.7159 273.79 32.3295 273.449 31.2386C273.108 30.1402 272.634 29.322 272.028 28.7841C271.422 28.2462 270.714 27.9773 269.903 27.9773C268.699 27.9773 267.725 28.5871 266.983 29.8068C266.241 31.0189 265.866 32.8826 265.858 35.3977C265.85 37.1023 266.013 38.5152 266.347 39.6364C266.688 40.7576 267.165 41.5947 267.778 42.1477C268.392 42.6932 269.1 42.9659 269.903 42.9659ZM289.886 47V23.7273H299.5C301.242 23.7273 302.746 24.0682 304.011 24.75C305.284 25.4242 306.265 26.3674 306.955 27.5795C307.644 28.7841 307.989 30.1856 307.989 31.7841C307.989 33.3902 307.636 34.7955 306.932 36C306.235 37.197 305.239 38.125 303.943 38.7841C302.648 39.4432 301.11 39.7727 299.33 39.7727H293.398V35.3409H298.284C299.133 35.3409 299.841 35.1932 300.409 34.8977C300.985 34.6023 301.42 34.1894 301.716 33.6591C302.011 33.1212 302.159 32.4962 302.159 31.7841C302.159 31.0644 302.011 30.4432 301.716 29.9205C301.42 29.3902 300.985 28.9811 300.409 28.6932C299.833 28.4053 299.125 28.2614 298.284 28.2614H295.511V47H289.886Z" fill="#AEAEAE"/>
<line x1="139.014" y1="33.5001" x2="354.014" y2="35.5001" stroke="#AEAEAE" stroke-width="3"/>
<path d="M275.585 71.5034C275.31 72.2851 275.722 73.1411 276.503 73.4154L289.242 77.8851C290.024 78.1594 290.88 77.748 291.154 76.9663C291.428 76.1846 291.017 75.3286 290.235 75.0543L278.912 71.0812L282.885 59.758C283.159 58.9763 282.748 58.1203 281.966 57.846C281.185 57.5717 280.329 57.9831 280.054 58.7648L275.585 71.5034ZM353.35 33.648L276.35 70.648L277.65 73.352L354.65 36.352L353.35 33.648Z" fill="#AEAEAE"/>
</svg>
