<svg width="113" height="84" viewBox="0 0 113 84" fill="none" xmlns="http://www.w3.org/2000/svg">
<path d="M70.9626 43.1108L55.0788 81.783L39.4106 43.0229L70.9626 43.1108Z" fill="#6CD1F1" stroke="#83CFEF"/>
<path d="M32.5628 3.89H36.3728V31.67H32.5628V3.89ZM28.9328 14.6H33.5528V17.78H28.9328V14.6ZM26.3528 4.37H30.0728V30.35H26.3528V4.37ZM13.6628 6.95H17.6528V23H13.6628V6.95ZM13.6628 21.5H15.5828C18.2528 21.5 21.3728 21.35 24.8228 20.69L25.2128 24.11C21.5828 24.77 18.4028 24.92 15.5828 24.92H13.6628V21.5ZM56.6219 5C60.8519 5 63.9119 7.43 63.9119 10.94C63.9119 14.39 60.8519 16.88 56.6219 16.88C52.4219 16.88 49.3619 14.39 49.3619 10.94C49.3619 7.43 52.4219 5 56.6219 5ZM56.6219 8.24C54.6119 8.24 53.1719 9.2 53.1719 10.94C53.1719 12.65 54.6119 13.61 56.6219 13.61C58.6619 13.61 60.1019 12.65 60.1019 10.94C60.1019 9.2 58.6619 8.24 56.6219 8.24ZM54.7619 19.64H58.7519V30.83H54.7619V19.64ZM66.9119 3.89H70.8719V31.67H66.9119V3.89ZM48.1919 21.74L47.7119 18.5C52.5719 18.5 59.4419 18.44 65.3219 17.54L65.5919 20.45C59.5619 21.65 52.9919 21.71 48.1919 21.74ZM94.2995 3.89H98.3195V31.67H94.2995V3.89ZM82.0595 11.09H85.2095V12.53C85.2095 18.41 82.5995 24.32 77.4695 26.54L75.3395 23.48C79.8995 21.44 82.0595 16.73 82.0595 12.53V11.09ZM82.9295 11.09H86.0495V12.53C86.0495 16.52 88.2395 21.08 92.8295 23.03L90.6995 26.09C85.5695 23.96 82.9295 18.23 82.9295 12.53V11.09ZM76.2695 8.42H91.7195V11.57H76.2695V8.42ZM82.0595 4.52H86.0495V10.04H82.0595V4.52Z" fill="black"/>
</svg>
